<svg width="789" height="920" viewBox="0 0 789 920" fill="none" xmlns="http://www.w3.org/2000/svg">
<path d="M443.001 127.216C453.661 133.17 464.839 137.975 476.032 142.938C480.66 145.066 485.286 147.198 489.91 149.334C507.884 157.552 526.043 165.375 544.205 173.205C570.03 184.342 595.786 195.6 621.447 207.075C647.272 218.618 673.172 229.992 699.143 241.234C700.826 241.963 702.51 242.692 704.245 243.444C720.56 250.504 736.886 257.54 753.238 264.52C755.526 265.497 757.814 266.474 760.172 267.481C764.298 269.24 768.428 270.995 772.56 272.743C785.645 278.313 785.645 278.313 788.326 280.87C789.041 292.86 788.921 304.894 788.931 316.902C788.932 318.712 788.934 320.522 788.936 322.387C788.707 482.679 736.327 643.265 621.447 762.84C620.151 764.202 618.855 765.564 617.52 766.968C609.245 775.667 600.874 784.272 592.424 792.819C590.128 795.155 590.128 795.155 587.786 797.539C577.898 807.303 567.047 815.773 555.948 824.257C551.404 827.772 546.919 831.359 542.514 835.031C509.926 862.069 472.771 884.357 434.662 903.634C430.458 905.778 426.3 908.003 422.144 910.23C419.625 911.532 417.106 912.834 414.511 914.176C412.363 915.299 410.215 916.423 408.001 917.581C393.981 921.954 383.893 917.425 371.166 911.617C366.096 909.141 361.046 906.629 356.012 904.087C353.343 902.748 350.673 901.409 347.922 900.03C290.211 870.525 237.605 830.465 191.098 786.621C189.854 785.456 188.609 784.291 187.327 783.09C178.854 774.94 181.197 777.356 177.197 773.356C176.197 772.356 175.197 770.985 174.017 769.758C170.539 766.139 167.245 762.358 164.041 758.516C162.083 756.176 160.125 753.837 158.108 751.426C156.175 749.105 154.242 746.783 152.25 744.391C150.667 742.569 149.083 740.746 147.451 738.869C60.6969 631.856 78.6969 649.856 60.6969 608.914C59.3851 607.692 51.6969 586.856 50.6717 585.272C49.0373 581.218 49.0372 581.218 47.4973 575.759C44.68 566.19 41.4583 556.877 37.9743 547.51C23.162 506.166 12.3887 462.648 7.13795 419.234C6.89243 417.28 6.64692 415.325 6.39396 413.312C2.91611 384.418 1.51246 355.339 0.919404 326.271C0.833126 322.639 0.714641 319.008 0.562912 315.378C-0.581541 286.494 -0.581541 286.494 6.47072 278.375C11.4991 275.313 15.9775 273.358 21.6492 271.646C25.0911 270.29 25.0911 270.29 28.6025 268.907C31.1465 267.98 30.6015 267.802 33.1969 266.856C35.5913 264.573 36.7542 265.185 39.1969 262.856C44.0244 261.291 48.246 259.326 53.0902 257.809C60.2794 254.904 67.3394 251.755 74.4036 248.585C76.2788 247.764 78.1541 246.944 80.0862 246.099C81.8679 245.302 83.6497 244.505 85.4854 243.684C87.1029 242.965 88.7203 242.246 90.3868 241.504C94.6518 239.554 93.6969 239.856 98.1969 236.856C100.205 236.574 103.628 233.647 105.697 233.356C116.197 229.856 122.422 227.75 132.297 223.074C135.959 221.358 139.624 219.649 143.294 217.948C144.899 217.19 146.504 216.432 148.157 215.651C152.25 213.994 151.197 213.856 155.697 212.356C158.697 210.356 157.197 211.356 159.506 209.382C163.417 207.623 163.417 207.623 168.878 205.742C181.319 201.188 193.376 196.026 205.458 190.681C207.411 189.819 209.363 188.957 211.375 188.069C219.557 184.453 227.734 180.827 235.908 177.197C241.929 174.526 247.954 171.865 253.98 169.205C255.837 168.377 257.693 167.548 259.606 166.695C272.63 160.954 272.63 160.954 278.014 160.954C278.812 159.432 279.611 157.91 280.433 156.342C282.727 155.628 285.022 154.915 287.386 154.18C294.88 152.342 294.88 152.342 298.874 147.982C299.972 146.936 301.069 145.89 302.2 144.811C305.392 144.811 308.585 144.811 311.874 144.811C313.47 143.289 315.066 141.767 316.711 140.199C318.932 139.494 321.154 138.789 323.443 138.062C331.291 135.565 337.393 132.37 344.439 128.273C383.787 106.952 404.259 105.094 443.001 127.216ZM352.989 184.015C348.772 189.885 348.772 189.885 345.28 196.698C325.788 229.873 294.15 254.844 258.666 271.646C256.434 272.751 254.202 273.857 251.902 274.997C226.833 287.258 202.358 297.263 174.846 303.139C166.855 304.873 161.585 306.453 154.669 310.849C153.773 318.677 153.195 324.429 157.239 331.459C168.946 337.581 182.968 333.377 195.083 330.047C197.06 329.467 199.037 328.887 201.075 328.289C203.174 327.675 205.272 327.062 207.435 326.431C260.294 310.393 314.177 285.141 350.57 243.973C351.768 240.548 352.976 243.35 354.197 239.856C355.793 239.856 356.182 237.054 357.826 237.054C361.722 231.834 365.329 226.637 368.861 221.2C369.857 219.699 370.853 218.198 371.879 216.651C381.269 202.584 381.269 202.584 382.012 186.321C377.928 180.696 377.928 180.696 372.337 177.097C363.388 177.097 360.16 178.996 352.989 184.015ZM423.127 237.054C422.332 238.618 421.537 240.182 420.718 241.793C411.636 258.736 400.752 271.903 386.849 285.482C384.903 287.432 382.958 289.382 380.953 291.391C378.908 293.246 376.863 295.101 374.756 297.012C373.247 298.439 371.738 299.866 370.183 301.336C320.111 346.806 251.461 378.005 185.547 396.002C170.246 400.122 170.246 400.122 158.155 409.47C157.005 411.931 155.854 414.392 154.669 416.928C154.032 418.285 153.396 419.642 152.74 421.04C126.522 480.037 124.256 549.125 148.696 608.914C164.792 646.306 188.625 676.189 217.551 705.188C218.988 706.707 220.425 708.226 221.906 709.791C261.29 750.139 322.546 772.394 379.593 774.37C459.676 775.113 532.755 746.539 590.611 694.09C620.888 664.188 637.578 629.711 648.051 589.884C648.457 588.341 648.864 586.799 649.283 585.21C660.116 542.041 659.187 495.455 647.224 452.639C646.117 448.653 645.08 444.65 644.097 440.635C638.428 414.96 638.428 414.96 621.154 396.147C614.955 394.333 609.143 392.881 602.836 391.643C536.837 378.563 477.683 315.876 442.475 264.727C437.649 257.256 433.099 249.646 428.635 241.973C427.615 240.35 426.596 238.727 425.545 237.054C424.747 237.054 423.949 237.054 423.127 237.054Z" fill="#154BEB"/>
<path d="M423.127 292.4C432.862 295.495 435.944 301.622 441.417 309.408C457.54 331.605 475.818 351.686 498.101 368.501C499.937 369.891 499.937 369.891 501.81 371.309C529.592 392.128 558.992 410.068 593.029 419.811C602.167 422.973 605.952 424.714 611.3 432.539C614.583 440.345 616.937 447.965 619.028 456.132C619.758 458.62 620.487 461.108 621.239 463.671C637.789 522.296 629.948 586.726 600.757 640.645C580.753 672.632 551.298 697.954 517.525 716.196C512.313 718.941 512.313 718.941 507.776 723.636C502.592 725.783 497.341 727.783 492.055 729.69C489.237 730.718 486.418 731.747 483.515 732.807C476.335 735.167 478.197 735.356 473.197 737.356C471.197 738.856 470.697 738.856 469.079 739.779C409.183 756.623 346.01 754.024 290.296 726.708C274.222 718.287 260.231 707.56 246.573 695.964C244.416 694.138 242.259 692.313 240.036 690.433C197.745 652.264 163.677 596.163 161.348 539.691C160.54 501.543 164.79 465.093 183.691 430.765C185.288 429.243 186.884 427.721 188.528 426.153C190.923 426.153 193.317 426.153 195.784 426.153C196.582 424.631 197.38 423.109 198.203 421.541C203.578 419.739 203.578 419.739 210.446 418.081C212.838 417.49 215.229 416.898 217.693 416.289C222.05 415.268 226.413 414.271 230.787 413.316C235.273 412.33 239.719 411.185 244.155 410.01C245.352 407.727 245.352 407.727 246.573 405.398C249.417 404.542 252.26 403.686 255.189 402.804C273.423 397.302 290.168 388.499 307.037 380.031C308.696 379.203 310.356 378.375 312.065 377.522C355.16 355.834 391.197 327.625 423.127 292.4ZM236.899 449.213C233.705 453.509 233.705 453.509 234.481 458.438C237.772 465.243 237.772 465.243 244.155 469.968C252.289 469.907 252.289 469.907 261.085 467.662C273.437 465.503 281.764 465.399 294.037 468.094C302.739 469.802 308.162 470.792 315.955 466.365C321.908 461.266 321.908 461.266 323.211 454.979C320.76 446.48 317.39 444.529 309.455 439.989C283.706 430.708 258.648 431.667 236.899 449.213ZM473.916 446.907C470.527 452.482 470.527 452.482 471.497 458.438C475.946 464.094 479.377 467.008 486.311 469.536C491.063 470.378 491.063 470.378 495.683 467.662C501.473 467.435 507.271 467.363 513.066 467.374C516.193 467.368 519.32 467.362 522.542 467.356C531.961 467.662 531.961 467.662 541.229 469.067C549.005 470.777 549.005 470.777 554.937 466.221C558.977 461.022 558.977 461.022 559.17 455.123C553.741 444.512 542.952 439.734 531.555 435.936C509.967 430.452 491.869 434.925 473.916 446.907ZM245.818 497.497C242.051 499.206 238.282 500.908 234.509 502.605C232.057 503.746 232.057 503.746 229.556 504.91C224.79 506.872 220.194 508.11 215.132 509.171C214.122 516.855 214.122 516.855 215.132 525.314C221.051 531.441 224.646 534.298 233.423 535.115C239.318 536.844 239.318 536.844 241.802 540.745C243.387 544.04 244.945 547.346 246.479 550.663C250.813 558.649 257.673 562.891 265.922 566.823C280.962 568.042 294.3 568.495 307.037 559.905C319.379 546.865 319.839 538.422 319.64 521.179C319.03 512.339 317.567 507.004 311.874 499.947C289.428 483.45 269.957 486.153 245.818 497.497ZM481.474 502.397C471.532 515.502 472.478 527.911 473.916 543.763C479.327 555.074 486.276 561.588 498.101 566.823C511.645 568.562 523.097 568.606 535.589 563.076C544.206 555.271 549.963 547.613 553.728 536.844C558.64 534.818 558.64 534.818 564.611 533.241C570.452 531.762 570.452 531.762 575.495 529.926C579.07 523.108 578.059 516.684 577.913 509.171C575.327 508.333 575.327 508.333 572.689 507.478C551.435 500.386 551.435 500.386 541.786 494.903C522.049 483.765 496.954 485.099 481.474 502.397ZM369.919 601.414C366.482 608.992 367.276 612.317 370.07 620.151C375.858 628.341 379.387 630.734 389.267 633.699C400.997 634.35 408.719 633.003 418.29 626.349C423.702 619.091 425.545 614.92 425.545 606.027C422.452 600.282 420.496 597.502 414 595.442C399.458 592.888 381.222 590.996 369.919 601.414ZM356.768 656.76C351.919 662.679 351.479 667.653 351.921 675.065C353.773 683.313 358.31 688.614 365.082 693.657C378.531 701.193 393.333 702.625 408.615 700.576C420.831 697.021 432.375 692.197 440.056 682.127C442.7 675.105 442.77 671.603 440.661 664.399C437.828 658.408 437.828 658.408 430.382 654.454C425.562 654.399 425.562 654.399 420.406 655.319C406.689 657.114 392.879 658.677 379.593 654.454C371.09 653.865 364.706 653.655 356.768 656.76Z" fill="#154BEB"/>
<path d="M427.114 12.3519C436.761 16.8178 434.697 16.356 444.697 19.356C445.495 20.878 448.908 21.0215 449.731 22.5896C454.639 25.0157 459.654 27.2467 464.705 29.3907C467.041 30.3912 467.041 30.3912 469.424 31.4119C472.811 32.8616 476.202 34.3047 479.596 35.7422C488.733 39.6142 497.847 43.5357 506.963 47.452C509.783 48.6611 509.783 48.6611 512.659 49.8947C531.631 58.0452 550.473 66.4522 569.297 74.9087C575.724 77.7923 582.152 80.6747 588.579 83.5564C590.133 84.2531 591.686 84.9497 593.287 85.6674C616.164 95.918 639.133 105.981 662.096 116.057C728.259 145.087 728.259 145.087 757.036 157.927C758.736 158.682 760.435 159.436 762.186 160.213C773.531 165.296 773.531 165.296 776.233 167.872C776.929 172.31 777.481 176.769 777.972 181.231C778.28 183.971 778.589 186.71 778.907 189.532C779.379 193.864 779.379 193.864 779.861 198.284C780.487 203.938 781.117 209.592 781.751 215.246C782.027 217.767 782.303 220.289 782.587 222.886C783.468 229.964 784.617 236.954 785.908 243.973C748.656 228.789 711.727 212.965 674.836 197.004C644.652 183.947 614.42 171.004 584.111 158.216C556.914 146.74 529.807 135.095 502.779 123.263C492.314 118.685 481.838 114.13 471.362 109.574C463.635 106.21 455.914 102.834 448.212 99.4163C440.523 96.0122 432.812 92.6606 425.092 89.3216C422.926 88.344 420.759 87.3663 418.528 86.3591C405.799 80.9309 395.674 78.3718 382.012 82.5475C371.818 86.4126 361.957 90.8261 352.082 95.3751C346.877 97.7394 341.669 100.097 336.456 102.446C334.173 103.494 331.889 104.543 329.537 105.622C323.967 107.914 323.967 107.914 319.13 107.914C318.331 109.436 317.533 110.958 316.711 112.527C312.715 114.346 312.715 114.346 307.188 116.274C292.408 121.648 278.061 127.851 263.674 134.107C261.847 134.892 260.019 135.678 258.137 136.488C256.492 137.202 254.848 137.916 253.153 138.652C248.992 140.199 248.992 140.199 244.155 140.199C242.958 142.482 242.958 142.482 241.736 144.812C236.912 146.385 232.07 147.91 227.225 149.424C220.241 152.397 213.318 155.477 206.403 158.594C200.621 160.954 200.621 160.954 195.784 160.954C194.986 162.476 194.188 163.998 193.365 165.566C188.538 167.368 188.538 167.368 182.633 169.025C173.79 171.5 173.79 171.5 166.762 177.097C161.75 178.658 156.736 180.214 151.713 181.74C139.643 185.827 128.177 191.205 116.613 196.431C109.134 199.81 101.636 203.147 94.1392 206.49C89.8047 208.425 89.8047 208.425 85.3826 210.398C74.9683 215.017 64.5121 219.533 53.9971 223.939C52.4552 224.592 50.9134 225.245 49.3248 225.918C39.1739 230.136 39.1969 230.856 34.6969 232.856C32.6969 234.356 33.6969 233.356 31.3233 234.748C26.5315 236.41 21.6853 237.931 16.8121 239.361C12.7716 240.875 8.73885 242.408 4.71937 243.973C3.62034 176.343 3.62034 176.343 20.6725 159.285C35.8164 149.793 52.3783 144.546 69.7589 139.985C78.6032 137.524 86.6594 134.164 94.9404 130.352C99.0424 128.669 99.0424 128.669 103.879 128.669C105.077 126.386 105.077 126.386 106.298 124.057C110.56 122.151 110.56 122.151 116.293 120.156C131.721 114.501 146.59 107.803 161.519 101.064C168.298 98.004 175.085 94.9587 181.871 91.9127C185.364 90.3448 188.857 88.7762 192.349 87.2068C209.841 79.3492 227.371 71.5705 244.911 63.8107C247.615 62.6129 250.319 61.4151 253.105 60.181C258.174 57.9386 263.245 55.7004 268.318 53.4671C273.297 51.2745 278.272 49.0715 283.242 46.8597C285.642 45.8007 288.041 44.7416 290.513 43.6505C292.649 42.7026 294.786 41.7547 296.987 40.7781C302.2 38.7321 301.86 37.356 306.697 37.356C307.495 35.8339 308.633 35.6881 309.455 34.12C314.27 32.5187 319.111 30.9927 323.967 29.5078C328.839 27.2708 333.687 24.9823 338.478 22.5896C338.478 21.0676 342.197 20.9241 342.197 19.356C344.591 19.1657 343.267 17.5969 345.733 17.4009C355.129 16.1784 358.955 13.6942 367.197 9.35596C371.307 7.41921 372.36 4.85596 377.197 4.85596C377.995 3.33395 381.189 3.40304 382.012 1.83491C397.914 -4.12207 413.117 5.76942 427.114 12.3519Z" fill="#154BEB"/>
<path d="M594.843 679.821C594.843 686.739 594.843 686.739 590.611 691.45C588.815 693.082 587.019 694.714 585.169 696.396C583.373 698.046 581.577 699.695 579.727 701.395C577.632 703.272 577.632 703.272 575.495 705.188C573.898 704.427 572.302 703.666 570.658 702.882C578.639 695.272 586.62 687.661 594.843 679.821Z" fill="white"/>
<path d="M577.913 670.597C577.913 677.515 577.913 677.515 574.739 681.217C573.392 682.421 572.045 683.625 570.658 684.866C569.311 686.087 567.964 687.309 566.576 688.568C565.529 689.486 564.481 690.405 563.402 691.351C561.806 690.59 560.21 689.829 558.565 689.045C564.95 682.957 571.335 676.869 577.913 670.597Z" fill="white"/>
<path d="M406.197 303.931C406.197 310.849 406.197 310.849 403.023 314.551C401.676 315.755 400.329 316.959 398.941 318.2C397.594 319.421 396.248 320.643 394.86 321.902C393.812 322.82 392.765 323.739 391.686 324.685C390.089 323.924 388.493 323.163 386.849 322.379C393.234 316.291 399.618 310.203 406.197 303.931Z" fill="white"/>
<path d="M565.821 815.879C567.417 816.64 569.013 817.401 570.658 818.185C568.263 820.468 565.869 822.751 563.402 825.104C561.806 824.343 560.21 823.582 558.565 822.798C560.959 820.515 563.354 818.232 565.821 815.879Z" fill="white"/>
<path d="M345.733 239.361C345.733 241.644 345.733 243.927 345.733 246.279C343.339 247.801 340.945 249.323 338.478 250.891C343.013 241.955 343.013 241.955 345.733 239.361Z" fill="white"/>
<path d="M515.031 855.083C516.627 855.844 518.224 856.605 519.868 857.389C515.08 859.672 515.08 859.672 510.194 862.001C511.79 859.718 513.387 857.435 515.031 855.083Z" fill="white"/>
<path d="M623.865 760.533C623.865 762.816 623.865 765.099 623.865 767.452C621.471 768.593 621.471 768.593 619.028 769.758C620.625 766.714 622.221 763.67 623.865 760.533Z" fill="white"/>
<path d="M640.795 742.085C640.795 744.368 640.795 746.651 640.795 749.003C638.401 750.145 638.401 750.145 635.958 751.309C637.554 748.265 639.151 745.221 640.795 742.085Z" fill="white"/>
<path d="M203.04 684.433C206.631 686.716 206.631 686.716 210.295 689.045C209.497 690.567 208.699 692.089 207.877 693.657C206.28 690.613 204.684 687.569 203.04 684.433Z" fill="#D4FFFF"/>
<path d="M510.194 345.44C514.983 347.723 514.983 347.723 519.868 350.052C517.474 350.052 515.08 350.052 512.613 350.052C511.815 348.53 511.016 347.008 510.194 345.44Z" fill="#D4FFFF"/>
<path d="M234.481 686.739C236.875 689.022 239.269 691.305 241.736 693.657C239.342 692.896 236.948 692.135 234.481 691.351C234.481 689.829 234.481 688.307 234.481 686.739Z" fill="white"/>
<path d="M374.756 599.108C376.352 599.869 377.948 600.63 379.593 601.414C377.199 602.936 374.804 604.458 372.337 606.027C373.135 603.744 373.934 601.461 374.756 599.108Z" fill="white"/>
<path d="M524.705 848.164C526.302 848.925 527.898 849.686 529.542 850.47C527.148 850.47 524.754 850.47 522.287 850.47C523.085 849.709 523.883 848.948 524.705 848.164Z" fill="white"/>
<path d="M546.472 832.022C548.068 832.783 549.665 833.544 551.309 834.328C548.915 834.328 546.521 834.328 544.054 834.328C544.852 833.567 545.65 832.806 546.472 832.022Z" fill="white"/>
<path d="M524.705 712.106C526.302 712.867 527.898 713.628 529.542 714.412C527.148 714.412 524.754 714.412 522.287 714.412C523.085 713.651 523.883 712.89 524.705 712.106Z" fill="white"/>
<path d="M563.402 707.494C564.998 708.255 566.594 709.016 568.239 709.8C565.845 709.8 563.45 709.8 560.983 709.8C561.782 709.039 562.58 708.278 563.402 707.494Z" fill="white"/>
<path d="M493.264 361.583C495.659 362.344 498.053 363.105 500.52 363.889C498.126 363.889 495.731 363.889 493.264 363.889C493.264 363.128 493.264 362.367 493.264 361.583Z" fill="white"/>
<path d="M362.663 340.828C364.259 341.589 365.856 342.35 367.5 343.134C365.106 343.134 362.712 343.134 360.245 343.134C361.043 342.373 361.841 341.612 362.663 340.828Z" fill="white"/>
<path d="M328.804 333.91C330.4 334.671 331.996 335.432 333.641 336.216C331.246 336.216 328.852 336.216 326.385 336.216C327.183 335.455 327.981 334.694 328.804 333.91Z" fill="white"/>
<path d="M336.059 329.298C337.656 330.059 339.252 330.82 340.896 331.604C338.502 331.604 336.108 331.604 333.641 331.604C334.439 330.843 335.237 330.082 336.059 329.298Z" fill="white"/>
<path d="M367.5 306.237C369.097 306.998 370.693 307.759 372.337 308.543C369.943 308.543 367.549 308.543 365.082 308.543C365.88 307.782 366.678 307.021 367.5 306.237Z" fill="white"/>
<path d="M464.242 299.319C466.636 300.46 466.636 300.46 469.079 301.625C468.281 303.147 467.483 304.669 466.66 306.237C465.862 303.954 465.064 301.671 464.242 299.319Z" fill="white"/>
<path d="M442.475 271.646C444.869 272.787 444.869 272.787 447.312 273.952C446.514 275.474 445.716 276.996 444.894 278.564C444.095 276.281 443.297 273.998 442.475 271.646Z" fill="#BFFFFF"/>
<path d="M292.526 253.197C294.122 253.958 295.718 254.719 297.363 255.503C294.968 255.503 292.574 255.503 290.107 255.503C290.905 254.742 291.703 253.981 292.526 253.197Z" fill="white"/>
<path d="M333.641 250.891C335.237 251.652 336.833 252.413 338.478 253.197C336.083 253.197 333.689 253.197 331.222 253.197C332.02 252.436 332.818 251.675 333.641 250.891Z" fill="white"/>
<path d="M505.357 862.001C507.751 863.142 507.751 863.142 510.194 864.307C507.8 865.448 507.8 865.448 505.357 866.613C505.357 865.091 505.357 863.569 505.357 862.001Z" fill="white"/>
<path d="M222.388 818.186C223.984 818.186 225.58 818.186 227.225 818.186C226.427 819.708 225.629 821.23 224.806 822.798C224.008 821.276 223.21 819.754 222.388 818.186Z" fill="#AAFFFF"/>
<path d="M585.169 799.737C585.967 801.259 586.765 802.781 587.587 804.349C585.991 803.588 584.395 802.827 582.75 802.043C583.548 801.282 584.346 800.521 585.169 799.737Z" fill="#D4FFFF"/>
<path d="M203.04 799.737C204.636 801.259 206.232 802.781 207.877 804.349C206.28 804.349 204.684 804.349 203.04 804.349C203.04 802.827 203.04 801.305 203.04 799.737Z" fill="#D4FFFF"/>
<path d="M592.424 792.819C593.223 794.341 594.021 795.863 594.843 797.431C593.247 796.67 591.65 795.909 590.006 795.125C590.804 794.364 591.602 793.603 592.424 792.819Z" fill="#D4FFFF"/>
<path d="M190.947 788.207C192.543 789.729 194.139 791.251 195.784 792.819C194.188 792.819 192.592 792.819 190.947 792.819C190.947 791.297 190.947 789.775 190.947 788.207Z" fill="white"/>
<path d="M597.262 788.207C598.06 789.729 598.858 791.251 599.68 792.819C598.084 792.058 596.488 791.297 594.843 790.513C595.641 789.752 596.439 788.991 597.262 788.207Z" fill="white"/>
<path d="M186.11 783.594C187.706 785.116 189.302 786.638 190.947 788.206C189.351 788.206 187.754 788.206 186.11 788.206C186.11 786.684 186.11 785.162 186.11 783.594Z" fill="white"/>
<path d="M602.099 783.594C602.897 785.116 603.695 786.638 604.517 788.206C602.921 787.445 601.325 786.684 599.68 785.9C600.478 785.139 601.276 784.378 602.099 783.594Z" fill="white"/>
<path d="M628.703 755.921C629.501 757.443 630.299 758.965 631.121 760.534C629.525 759.773 627.929 759.012 626.284 758.227C627.082 757.466 627.88 756.705 628.703 755.921Z" fill="white"/>
<path d="M650.469 730.555C651.268 732.077 652.066 733.599 652.888 735.167C651.292 734.406 649.695 733.645 648.051 732.861C648.849 732.1 649.647 731.339 650.469 730.555Z" fill="white"/>
<path d="M258.666 707.494C260.262 709.016 261.858 710.538 263.503 712.106C261.907 712.106 260.311 712.106 258.666 712.106C258.666 710.584 258.666 709.062 258.666 707.494Z" fill="white"/>
<path d="M227.225 709.8C228.821 709.8 230.417 709.8 232.062 709.8C231.264 711.322 230.466 712.844 229.644 714.412C228.845 712.89 228.047 711.368 227.225 709.8Z" fill="white"/>
<path d="M219.969 702.882C221.566 702.882 223.162 702.882 224.806 702.882C224.008 704.404 223.21 705.926 222.388 707.494C221.59 705.972 220.792 704.45 219.969 702.882Z" fill="white"/>
<path d="M215.132 698.27C216.729 698.27 218.325 698.27 219.969 698.27C219.171 699.792 218.373 701.314 217.551 702.882C216.753 701.36 215.955 699.838 215.132 698.27Z" fill="white"/>
<path d="M241.736 693.657C243.332 695.179 244.929 696.701 246.573 698.269C244.977 698.269 243.381 698.269 241.736 698.269C241.736 696.747 241.736 695.225 241.736 693.657Z" fill="white"/>
<path d="M210.295 693.657C211.891 693.657 213.488 693.657 215.132 693.657C214.334 695.179 213.536 696.701 212.714 698.269C211.916 696.747 211.118 695.225 210.295 693.657Z" fill="white"/>
<path d="M229.644 682.127C231.24 683.649 232.836 685.171 234.481 686.739C232.884 686.739 231.288 686.739 229.644 686.739C229.644 685.217 229.644 683.695 229.644 682.127Z" fill="white"/>
<path d="M430.382 682.127C432.777 683.268 432.777 683.268 435.219 684.433C432.825 685.575 432.825 685.575 430.382 686.739C430.382 685.217 430.382 683.695 430.382 682.127Z" fill="white"/>
<path d="M224.806 677.515C226.403 679.037 227.999 680.559 229.644 682.127C228.047 682.127 226.451 682.127 224.806 682.127C224.806 680.605 224.806 679.083 224.806 677.515Z" fill="white"/>
<path d="M602.099 670.597C604.493 671.738 604.493 671.738 606.936 672.903C604.541 674.044 604.541 674.044 602.099 675.209C602.099 673.687 602.099 672.165 602.099 670.597Z" fill="white"/>
<path d="M706.096 649.842C706.894 651.364 707.692 652.886 708.514 654.454C706.918 653.693 705.322 652.932 703.677 652.148C704.475 651.387 705.273 650.626 706.096 649.842Z" fill="white"/>
<path d="M483.59 502.253C484.388 503.775 485.186 505.297 486.009 506.865C484.412 506.104 482.816 505.343 481.172 504.559C481.97 503.798 482.768 503.037 483.59 502.253Z" fill="white"/>
<path d="M323.967 366.195C326.361 367.336 326.361 367.336 328.804 368.501C326.409 369.642 326.409 369.642 323.967 370.807C323.967 369.285 323.967 367.763 323.967 366.195Z" fill="white"/>
<path d="M374.756 331.604C377.15 332.745 377.15 332.745 379.593 333.91C377.199 335.051 377.199 335.051 374.756 336.216C374.756 334.694 374.756 333.172 374.756 331.604Z" fill="white"/>
<path d="M490.846 326.991C492.442 328.513 494.038 330.035 495.683 331.604C494.087 331.604 492.49 331.604 490.846 331.604C490.846 330.082 490.846 328.56 490.846 326.991Z" fill="white"/>
<path d="M447.312 278.564C448.908 280.086 450.505 281.608 452.149 283.176C450.553 283.176 448.957 283.176 447.312 283.176C447.312 281.654 447.312 280.132 447.312 278.564Z" fill="white"/>
<path d="M328.804 255.503C329.602 257.025 330.4 258.547 331.222 260.115C329.626 259.354 328.03 258.593 326.385 257.809C327.183 257.048 327.981 256.287 328.804 255.503Z" fill="white"/>
<path d="M352.989 230.136C355.383 231.278 355.383 231.278 357.826 232.442C355.432 233.584 355.432 233.584 352.989 234.748C352.989 233.226 352.989 231.704 352.989 230.136Z" fill="white"/>
<path d="M321.548 230.136C322.346 231.658 323.144 233.18 323.967 234.748C322.37 233.987 320.774 233.226 319.13 232.442C319.928 231.681 320.726 230.92 321.548 230.136Z" fill="white"/>
<path d="M345.733 901.204C350.571 903.51 350.571 903.51 350.571 903.51L345.733 901.204Z" fill="white"/>
<path d="M449.731 896.592C454.568 898.898 454.568 898.898 454.568 898.898L449.731 896.592Z" fill="white"/>
<path d="M336.059 896.592C340.896 898.898 340.896 898.898 340.896 898.898L336.059 896.592Z" fill="white"/>
<path d="M456.986 891.98C461.823 894.286 461.823 894.286 461.823 894.286L456.986 891.98Z" fill="white"/>
<path d="M328.804 891.98C333.641 894.286 333.641 894.286 333.641 894.286L328.804 891.98Z" fill="white"/>
<path d="M469.079 885.062C473.916 887.368 473.916 887.368 473.916 887.368L469.079 885.062Z" fill="white"/>
<path d="M316.711 885.062C321.548 887.368 321.548 887.368 321.548 887.368L316.711 885.062Z" fill="white"/>
<path d="M476.335 880.449C481.172 882.756 481.172 882.756 481.172 882.756L476.335 880.449Z" fill="white"/>
<path d="M309.455 880.449C314.292 882.756 314.292 882.756 314.292 882.756L309.455 880.449Z" fill="white"/>
<path d="M483.59 875.837C488.427 878.143 488.427 878.143 488.427 878.143L483.59 875.837Z" fill="white"/>
<path d="M488.427 873.531C493.264 875.837 493.264 875.837 493.264 875.837L488.427 873.531Z" fill="white"/>
<path d="M495.683 868.919C500.52 871.225 500.52 871.225 500.52 871.225L495.683 868.919Z" fill="white"/>
<path d="M282.851 864.307C287.688 866.613 287.688 866.613 287.688 866.613L282.851 864.307Z" fill="white"/>
<path d="M275.596 859.695C280.433 862.001 280.433 862.001 280.433 862.001L275.596 859.695Z" fill="white"/>
<path d="M263.503 850.47C268.34 852.777 268.34 852.777 268.34 852.777L263.503 850.47Z" fill="white"/>
<path d="M531.961 843.552C536.798 845.858 536.798 845.858 536.798 845.858L531.961 843.552Z" fill="white"/>
<path d="M253.829 843.552C258.666 845.858 258.666 845.858 258.666 845.858L253.829 843.552Z" fill="white"/>
<path d="M241.736 834.328C246.573 836.634 246.573 836.634 246.573 836.634L241.736 834.328Z" fill="white"/>
<path d="M227.225 822.798C232.062 825.104 232.062 825.104 232.062 825.104L227.225 822.798Z" fill="white"/>
<path d="M512.613 739.779C517.45 742.085 517.45 742.085 517.45 742.085L512.613 739.779Z" fill="white"/>
<path d="M270.759 739.779C275.596 742.085 275.596 742.085 275.596 742.085L270.759 739.779Z" fill="white"/>
<path d="M522.287 735.167C527.124 737.473 527.124 737.473 527.124 737.473L522.287 735.167Z" fill="white"/>
<path d="M529.542 730.555C534.38 732.861 534.38 732.861 534.38 732.861L529.542 730.555Z" fill="white"/>
<path d="M290.107 728.249C294.944 730.555 294.944 730.555 294.944 730.555L290.107 728.249Z" fill="white"/>
<path d="M541.635 723.636C546.472 725.942 546.472 725.942 546.472 725.942L541.635 723.636Z" fill="white"/>
<path d="M244.155 723.636C248.992 725.942 248.992 725.942 248.992 725.942L244.155 723.636Z" fill="white"/>
<path d="M548.891 719.024C553.728 721.33 553.728 721.33 553.728 721.33L548.891 719.024Z" fill="white"/>
<path d="M517.45 716.718C522.287 719.024 522.287 719.024 522.287 719.024L517.45 716.718Z" fill="white"/>
<path d="M232.062 714.412C236.899 716.718 236.899 716.718 236.899 716.718L232.062 714.412Z" fill="white"/>
<path d="M529.542 709.8C534.38 712.106 534.38 712.106 534.38 712.106L529.542 709.8Z" fill="white"/>
<path d="M536.798 705.188C541.635 707.494 541.635 707.494 541.635 707.494L536.798 705.188Z" fill="white"/>
<path d="M548.891 695.963C553.728 698.269 553.728 698.269 553.728 698.269L548.891 695.963Z" fill="white"/>
<path d="M425.545 686.739C430.382 689.045 430.382 689.045 430.382 689.045L425.545 686.739Z" fill="white"/>
<path d="M362.663 686.739C367.5 689.045 367.5 689.045 367.5 689.045L362.663 686.739Z" fill="white"/>
<path d="M413.453 599.108C418.29 601.414 418.29 601.414 418.29 601.414L413.453 599.108Z" fill="white"/>
<path d="M527.124 559.905C531.961 562.211 531.961 562.211 531.961 562.211L527.124 559.905Z" fill="white"/>
<path d="M534.379 555.293C539.217 557.599 539.217 557.599 539.217 557.599L534.379 555.293Z" fill="white"/>
<path d="M302.2 555.293C307.037 557.599 307.037 557.599 307.037 557.599L302.2 555.293Z" fill="white"/>
<path d="M253.829 555.293C258.666 557.599 258.666 557.599 258.666 557.599L253.829 555.293Z" fill="white"/>
<path d="M536.798 497.641C541.635 499.947 541.635 499.947 541.635 499.947L536.798 497.641Z" fill="white"/>
<path d="M488.427 497.641C493.264 499.947 493.264 499.947 493.264 499.947L488.427 497.641Z" fill="white"/>
<path d="M251.41 497.641C256.247 499.947 256.247 499.947 256.247 499.947L251.41 497.641Z" fill="white"/>
<path d="M241.736 463.05C246.573 465.356 246.573 465.356 246.573 465.356L241.736 463.05Z" fill="white"/>
<path d="M476.335 446.907C481.172 449.213 481.172 449.213 481.172 449.213L476.335 446.907Z" fill="white"/>
<path d="M541.635 444.601C546.472 446.907 546.472 446.907 546.472 446.907L541.635 444.601Z" fill="white"/>
<path d="M246.573 444.601C251.41 446.907 251.41 446.907 251.41 446.907L246.573 444.601Z" fill="white"/>
<path d="M531.961 439.989C536.798 442.295 536.798 442.295 536.798 442.295L531.961 439.989Z" fill="white"/>
<path d="M602.099 421.541C606.936 423.847 606.936 423.847 606.936 423.847L602.099 421.541Z" fill="white"/>
<path d="M560.983 405.398C565.82 407.704 565.82 407.704 565.82 407.704L560.983 405.398Z" fill="white"/>
<path d="M551.309 400.786C556.146 403.092 556.146 403.092 556.146 403.092L551.309 400.786Z" fill="white"/>
<path d="M531.961 389.255C536.798 391.561 536.798 391.561 536.798 391.561L531.961 389.255Z" fill="white"/>
<path d="M285.27 386.949C290.107 389.256 290.107 389.256 290.107 389.256L285.27 386.949Z" fill="white"/>
<path d="M524.705 384.643C529.542 386.949 529.542 386.949 529.542 386.949L524.705 384.643Z" fill="white"/>
<path d="M517.45 380.031C522.287 382.337 522.287 382.337 522.287 382.337L517.45 380.031Z" fill="white"/>
<path d="M299.781 380.031C304.618 382.337 304.618 382.337 304.618 382.337L299.781 380.031Z" fill="white"/>
<path d="M553.728 375.419C558.565 377.725 558.565 377.725 558.565 377.725L553.728 375.419Z" fill="white"/>
<path d="M507.776 373.113C512.613 375.419 512.613 375.419 512.613 375.419L507.776 373.113Z" fill="white"/>
<path d="M311.874 373.113C316.711 375.419 316.711 375.419 316.711 375.419L311.874 373.113Z" fill="white"/>
<path d="M546.472 370.807C551.309 373.113 551.309 373.113 551.309 373.113L546.472 370.807Z" fill="white"/>
<path d="M261.085 370.807C265.922 373.113 265.922 373.113 265.922 373.113L261.085 370.807Z" fill="white"/>
<path d="M539.217 366.195C544.054 368.501 544.054 368.501 544.054 368.501L539.217 366.195Z" fill="white"/>
<path d="M328.804 363.889C333.641 366.195 333.641 366.195 333.641 366.195L328.804 363.889Z" fill="white"/>
<path d="M531.961 361.583C536.798 363.889 536.798 363.889 536.798 363.889L531.961 361.583Z" fill="white"/>
<path d="M336.059 359.277C340.896 361.583 340.896 361.583 340.896 361.583L336.059 359.277Z" fill="white"/>
<path d="M522.287 354.664C527.124 356.97 527.124 356.97 527.124 356.97L522.287 354.664Z" fill="white"/>
<path d="M294.944 354.664C299.781 356.97 299.781 356.97 299.781 356.97L294.944 354.664Z" fill="white"/>
<path d="M345.733 352.358C350.571 354.664 350.571 354.664 350.571 354.664L345.733 352.358Z" fill="white"/>
<path d="M352.989 347.746C357.826 350.052 357.826 350.052 357.826 350.052L352.989 347.746Z" fill="white"/>
<path d="M311.874 345.44C316.711 347.746 316.711 347.746 316.711 347.746L311.874 345.44Z" fill="white"/>
<path d="M321.548 338.522C326.385 340.828 326.385 340.828 326.385 340.828L321.548 338.522Z" fill="white"/>
<path d="M369.919 336.216C374.756 338.522 374.756 338.522 374.756 338.522L369.919 336.216Z" fill="white"/>
<path d="M343.315 324.685C348.152 326.991 348.152 326.991 348.152 326.991L343.315 324.685Z" fill="white"/>
<path d="M352.989 317.767C357.826 320.073 357.826 320.073 357.826 320.073L352.989 317.767Z" fill="white"/>
<path d="M222.388 315.461C227.225 317.767 227.225 317.767 227.225 317.767L222.388 315.461Z" fill="white"/>
<path d="M278.014 290.094C282.851 292.4 282.851 292.4 282.851 292.4L278.014 290.094Z" fill="white"/>
<path d="M290.107 283.176C294.944 285.482 294.944 285.482 294.944 285.482L290.107 283.176Z" fill="white"/>
<path d="M297.363 278.564C302.2 280.87 302.2 280.87 302.2 280.87L297.363 278.564Z" fill="white"/>
<path d="M304.618 273.952C309.455 276.258 309.455 276.258 309.455 276.258L304.618 273.952Z" fill="white"/>
<path d="M314.292 267.033C319.129 269.34 319.129 269.34 319.129 269.34L314.292 267.033Z" fill="white"/>
<path d="M275.596 264.728C280.433 267.034 280.433 267.034 280.433 267.034L275.596 264.728Z" fill="white"/>
<path d="M282.851 260.115C287.688 262.421 287.688 262.421 287.688 262.421L282.851 260.115Z" fill="white"/>
<path d="M727.863 250.891C732.7 253.197 732.7 253.197 732.7 253.197L727.863 250.891Z" fill="white"/>
<path d="M299.781 248.585C304.618 250.891 304.618 250.891 304.618 250.891L299.781 248.585Z" fill="white"/>
<path d="M74.857 243.973C79.6941 246.279 79.6941 246.279 79.6941 246.279L74.857 243.973Z" fill="white"/>
<path d="M706.096 241.667C710.933 243.973 710.933 243.973 710.933 243.973L706.096 241.667Z" fill="white"/>
<path d="M79.6941 241.667C84.5312 243.973 84.5312 243.973 84.5312 243.973L79.6941 241.667Z" fill="white"/>
<path d="M679.492 230.136C684.329 232.442 684.329 232.442 684.329 232.442L679.492 230.136Z" fill="white"/>
<path d="M669.818 225.524C674.655 227.83 674.655 227.83 674.655 227.83L669.818 225.524Z" fill="white"/>
<path d="M70.02 216.3C74.857 218.606 74.857 218.606 74.857 218.606L70.02 216.3Z" fill="white"/>
<path d="M643.214 213.994C648.051 216.3 648.051 216.3 648.051 216.3L643.214 213.994Z" fill="white"/>
<path d="M703.677 211.688C708.514 213.994 708.514 213.994 708.514 213.994L703.677 211.688Z" fill="white"/>
<path d="M82.1126 211.688C86.9497 213.994 86.9497 213.994 86.9497 213.994L82.1126 211.688Z" fill="white"/>
<path d="M585.169 188.627C590.006 190.933 590.006 190.933 590.006 190.933L585.169 188.627Z" fill="white"/>
<path d="M200.621 188.627C205.458 190.933 205.458 190.933 205.458 190.933L200.621 188.627Z" fill="white"/>
<path d="M558.565 177.097C563.402 179.403 563.402 179.403 563.402 179.403L558.565 177.097Z" fill="white"/>
<path d="M616.61 174.791C621.447 177.097 621.447 177.097 621.447 177.097L616.61 174.791Z" fill="white"/>
<path d="M522.287 160.954C527.124 163.26 527.124 163.26 527.124 163.26L522.287 160.954Z" fill="white"/>
<path d="M263.503 160.954C268.34 163.26 268.34 163.26 268.34 163.26L263.503 160.954Z" fill="white"/>
<path d="M16.8121 160.954C21.6492 163.26 21.6492 163.26 21.6492 163.26L16.8121 160.954Z" fill="white"/>
<path d="M205.458 158.648C210.295 160.954 210.295 160.954 210.295 160.954L205.458 158.648Z" fill="white"/>
<path d="M759.304 156.342C764.141 158.648 764.141 158.648 764.141 158.648L759.304 156.342Z" fill="white"/>
<path d="M512.613 156.342C517.45 158.648 517.45 158.648 517.45 158.648L512.613 156.342Z" fill="white"/>
<path d="M568.239 154.036C573.076 156.342 573.076 156.342 573.076 156.342L568.239 154.036Z" fill="white"/>
<path d="M486.009 144.812C490.846 147.118 490.846 147.118 490.846 147.118L486.009 144.812Z" fill="white"/>
<path d="M723.026 140.199C727.863 142.506 727.863 142.506 727.863 142.506L723.026 140.199Z" fill="white"/>
<path d="M524.705 135.587C529.542 137.893 529.542 137.893 529.542 137.893L524.705 135.587Z" fill="white"/>
<path d="M449.731 128.669C454.568 130.975 454.568 130.975 454.568 130.975L449.731 128.669Z" fill="white"/>
<path d="M336.059 128.669C340.896 130.975 340.896 130.975 340.896 130.975L336.059 128.669Z" fill="white"/>
<path d="M89.3683 128.669C94.2053 130.975 94.2053 130.975 94.2053 130.975L89.3683 128.669Z" fill="white"/>
<path d="M505.357 126.363C510.194 128.669 510.194 128.669 510.194 128.669L505.357 126.363Z" fill="white"/>
<path d="M280.433 126.363C285.27 128.669 285.27 128.669 285.27 128.669L280.433 126.363Z" fill="white"/>
<path d="M686.747 124.057C691.585 126.363 691.585 126.363 691.585 126.363L686.747 124.057Z" fill="white"/>
<path d="M437.638 124.057C442.475 126.363 442.475 126.363 442.475 126.363L437.638 124.057Z" fill="white"/>
<path d="M427.964 119.445C432.801 121.751 432.801 121.751 432.801 121.751L427.964 119.445Z" fill="white"/>
<path d="M411.034 112.527C415.871 114.833 415.871 114.833 415.871 114.833L411.034 112.527Z" fill="white"/>
<path d="M466.66 110.22C471.497 112.527 471.497 112.527 471.497 112.527L466.66 110.22Z" fill="white"/>
<path d="M650.469 107.914C655.306 110.22 655.306 110.22 655.306 110.22L650.469 107.914Z" fill="white"/>
<path d="M401.36 107.914C406.197 110.22 406.197 110.22 406.197 110.22L401.36 107.914Z" fill="white"/>
<path d="M135.321 107.914C140.158 110.22 140.158 110.22 140.158 110.22L135.321 107.914Z" fill="white"/>
<path d="M140.158 105.608C144.995 107.914 144.995 107.914 144.995 107.914L140.158 105.608Z" fill="white"/>
<path d="M444.894 100.996C449.731 103.302 449.731 103.302 449.731 103.302L444.894 100.996Z" fill="white"/>
<path d="M614.191 91.7717C619.028 94.0778 619.028 94.0778 619.028 94.0778L614.191 91.7717Z" fill="white"/>
<path d="M418.29 89.4658C423.127 91.7719 423.127 91.7719 423.127 91.7719L418.29 89.4658Z" fill="white"/>
<path d="M367.5 89.4658C372.337 91.7719 372.337 91.7719 372.337 91.7719L367.5 89.4658Z" fill="white"/>
<path d="M602.099 87.1597C606.936 89.4657 606.936 89.4657 606.936 89.4657L602.099 87.1597Z" fill="white"/>
<path d="M435.219 13.3652C440.056 15.6713 440.056 15.6713 440.056 15.6713L435.219 13.3652Z" fill="white"/>
</svg>
